<mxfile host="65bd71144e">
    <diagram name="Page-1" id="c7558073-3199-34d8-9f00-42111426c3f3">
        <mxGraphModel dx="1319" dy="592" grid="1" gridSize="10" guides="1" tooltips="1" connect="1" arrows="1" fold="1" page="1" pageScale="1" pageWidth="826" pageHeight="1169" background="none" math="0" shadow="0">
            <root>
                <mxCell id="0"/>
                <mxCell id="1" parent="0"/>
                <mxCell id="8" value="" style="rounded=1;whiteSpace=wrap;html=1;fillColor=none;" parent="1" vertex="1">
                    <mxGeometry x="270" y="280" width="100" height="90" as="geometry"/>
                </mxCell>
                <mxCell id="vMF9VWcr_iRThbdEaZ-J-100" value="" style="edgeStyle=orthogonalEdgeStyle;rounded=0;orthogonalLoop=1;jettySize=auto;html=1;" parent="1" source="vMF9VWcr_iRThbdEaZ-J-96" target="vMF9VWcr_iRThbdEaZ-J-99" edge="1">
                    <mxGeometry relative="1" as="geometry"/>
                </mxCell>
                <mxCell id="16" value="" style="edgeStyle=none;html=1;fontColor=#000000;" parent="1" source="vMF9VWcr_iRThbdEaZ-J-96" target="10" edge="1">
                    <mxGeometry relative="1" as="geometry"/>
                </mxCell>
                <mxCell id="vMF9VWcr_iRThbdEaZ-J-96" value="ao_events" style="rounded=1;whiteSpace=wrap;html=1;fillColor=#ffe6cc;strokeColor=#d79b00;fontColor=#000000;" parent="1" vertex="1">
                    <mxGeometry x="280" y="330" width="80" height="30" as="geometry"/>
                </mxCell>
                <mxCell id="vMF9VWcr_iRThbdEaZ-J-98" value="" style="edgeStyle=orthogonalEdgeStyle;rounded=0;orthogonalLoop=1;jettySize=auto;html=1;" parent="1" source="vMF9VWcr_iRThbdEaZ-J-97" target="vMF9VWcr_iRThbdEaZ-J-96" edge="1">
                    <mxGeometry relative="1" as="geometry"/>
                </mxCell>
                <mxCell id="43" value="" style="edgeStyle=none;html=1;exitX=0.25;exitY=1;exitDx=0;exitDy=0;entryX=0.25;entryY=0;entryDx=0;entryDy=0;" parent="1" source="vMF9VWcr_iRThbdEaZ-J-97" target="42" edge="1">
                    <mxGeometry relative="1" as="geometry"/>
                </mxCell>
                <mxCell id="vMF9VWcr_iRThbdEaZ-J-97" value="ao_event_listener" style="rounded=1;whiteSpace=wrap;html=1;fillColor=#d5e8d4;strokeColor=#82b366;fontColor=#000000;" parent="1" vertex="1">
                    <mxGeometry x="150" y="330" width="100" height="30" as="geometry"/>
                </mxCell>
                <mxCell id="vMF9VWcr_iRThbdEaZ-J-107" value="" style="edgeStyle=orthogonalEdgeStyle;rounded=0;orthogonalLoop=1;jettySize=auto;html=1;" parent="1" source="vMF9VWcr_iRThbdEaZ-J-99" target="vMF9VWcr_iRThbdEaZ-J-106" edge="1">
                    <mxGeometry relative="1" as="geometry"/>
                </mxCell>
                <mxCell id="vMF9VWcr_iRThbdEaZ-J-99" value="killbot_consumer" style="rounded=1;whiteSpace=wrap;html=1;fillColor=#d5e8d4;strokeColor=#82b366;fontColor=#000000;" parent="1" vertex="1">
                    <mxGeometry x="270" y="380" width="100" height="30" as="geometry"/>
                </mxCell>
                <mxCell id="vMF9VWcr_iRThbdEaZ-J-102" value="Benthos" style="rounded=1;whiteSpace=wrap;html=1;fillColor=#d5e8d4;strokeColor=#82b366;fontColor=#000000;" parent="1" vertex="1">
                    <mxGeometry x="40" y="600" width="80" height="40" as="geometry"/>
                </mxCell>
                <mxCell id="vMF9VWcr_iRThbdEaZ-J-103" value="KEY" style="text;html=1;align=center;verticalAlign=middle;resizable=0;points=[];autosize=1;strokeColor=none;fillColor=none;" parent="1" vertex="1">
                    <mxGeometry x="100" y="574" width="40" height="20" as="geometry"/>
                </mxCell>
                <mxCell id="vMF9VWcr_iRThbdEaZ-J-104" value="Kafka" style="rounded=1;whiteSpace=wrap;html=1;fillColor=#ffe6cc;strokeColor=#d79b00;fontColor=#000000;" parent="1" vertex="1">
                    <mxGeometry x="40" y="640" width="80" height="40" as="geometry"/>
                </mxCell>
                <mxCell id="vMF9VWcr_iRThbdEaZ-J-105" value="Discord" style="rounded=1;whiteSpace=wrap;html=1;fillColor=#0050ef;strokeColor=#001DBC;fontColor=#ffffff;" parent="1" vertex="1">
                    <mxGeometry x="270" y="460" width="100" height="30" as="geometry"/>
                </mxCell>
                <mxCell id="24" value="" style="edgeStyle=none;html=1;fontColor=#000000;" parent="1" source="vMF9VWcr_iRThbdEaZ-J-106" target="vMF9VWcr_iRThbdEaZ-J-105" edge="1">
                    <mxGeometry relative="1" as="geometry"/>
                </mxCell>
                <mxCell id="vMF9VWcr_iRThbdEaZ-J-106" value="ao_discord_killbot" style="rounded=1;whiteSpace=wrap;html=1;fillColor=#e1d5e7;strokeColor=#9673a6;fontColor=#000000;" parent="1" vertex="1">
                    <mxGeometry x="270" y="420" width="100" height="30" as="geometry"/>
                </mxCell>
                <mxCell id="vMF9VWcr_iRThbdEaZ-J-108" value="NodeJS" style="rounded=1;whiteSpace=wrap;html=1;fillColor=#e1d5e7;strokeColor=#9673a6;fontColor=#000000;" parent="1" vertex="1">
                    <mxGeometry x="40" y="680" width="80" height="40" as="geometry"/>
                </mxCell>
                <mxCell id="vMF9VWcr_iRThbdEaZ-J-110" value="Discord" style="rounded=1;whiteSpace=wrap;html=1;fillColor=#0050ef;strokeColor=#001DBC;fontColor=#ffffff;" parent="1" vertex="1">
                    <mxGeometry x="40" y="720" width="80" height="40" as="geometry"/>
                </mxCell>
                <mxCell id="vMF9VWcr_iRThbdEaZ-J-112" value="" style="edgeStyle=orthogonalEdgeStyle;rounded=0;orthogonalLoop=1;jettySize=auto;html=1;" parent="1" source="vMF9VWcr_iRThbdEaZ-J-111" target="vMF9VWcr_iRThbdEaZ-J-97" edge="1">
                    <mxGeometry relative="1" as="geometry"/>
                </mxCell>
                <mxCell id="6" value="" style="edgeStyle=none;html=1;fontColor=#000000;entryX=0;entryY=0.5;entryDx=0;entryDy=0;exitX=1;exitY=0.5;exitDx=0;exitDy=0;" parent="1" source="vMF9VWcr_iRThbdEaZ-J-111" target="3" edge="1">
                    <mxGeometry relative="1" as="geometry"/>
                </mxCell>
                <mxCell id="vMF9VWcr_iRThbdEaZ-J-111" value="AO_API" style="rounded=1;whiteSpace=wrap;html=1;fillColor=#e3c800;fontColor=#000000;strokeColor=#B09500;" parent="1" vertex="1">
                    <mxGeometry x="40" y="330" width="80" height="30" as="geometry"/>
                </mxCell>
                <mxCell id="vMF9VWcr_iRThbdEaZ-J-113" value="Albion Online unofficial API" style="rounded=1;whiteSpace=wrap;html=1;fillColor=#e3c800;fontColor=#000000;strokeColor=#B09500;" parent="1" vertex="1">
                    <mxGeometry x="120" y="640" width="80" height="40" as="geometry"/>
                </mxCell>
                <mxCell id="7" value="" style="edgeStyle=none;html=1;fontColor=#000000;exitX=1;exitY=0.5;exitDx=0;exitDy=0;entryX=0;entryY=0.5;entryDx=0;entryDy=0;" parent="1" source="3" target="9" edge="1">
                    <mxGeometry relative="1" as="geometry">
                        <mxPoint x="280" y="340" as="targetPoint"/>
                    </mxGeometry>
                </mxCell>
                <mxCell id="3" value="crystal_listener &lt;br&gt;*" style="rounded=1;whiteSpace=wrap;html=1;fillColor=#d5e8d4;strokeColor=#82b366;fontColor=#000000;" parent="1" vertex="1">
                    <mxGeometry x="150" y="290" width="100" height="30" as="geometry"/>
                </mxCell>
                <mxCell id="11" value="" style="edgeStyle=none;html=1;fontColor=#000000;entryX=0;entryY=0.25;entryDx=0;entryDy=0;exitX=1;exitY=0.75;exitDx=0;exitDy=0;" parent="1" source="9" target="10" edge="1">
                    <mxGeometry relative="1" as="geometry"/>
                </mxCell>
                <mxCell id="9" value="ao_crystal" style="rounded=1;whiteSpace=wrap;html=1;fillColor=#ffe6cc;strokeColor=#d79b00;fontColor=#000000;" parent="1" vertex="1">
                    <mxGeometry x="280" y="290" width="80" height="30" as="geometry"/>
                </mxCell>
                <mxCell id="15" value="" style="edgeStyle=none;html=1;fontColor=#000000;exitX=1;exitY=0.5;exitDx=0;exitDy=0;" parent="1" source="10" target="13" edge="1">
                    <mxGeometry relative="1" as="geometry"/>
                </mxCell>
                <mxCell id="10" value="ao_consumer *" style="rounded=1;whiteSpace=wrap;html=1;fillColor=#f0a30a;strokeColor=#BD7000;fontColor=#000000;" parent="1" vertex="1">
                    <mxGeometry x="380" y="330" width="80" height="30" as="geometry"/>
                </mxCell>
                <mxCell id="12" value="golang" style="rounded=1;whiteSpace=wrap;html=1;fillColor=#f0a30a;strokeColor=#BD7000;fontColor=#000000;" parent="1" vertex="1">
                    <mxGeometry x="120" y="680" width="80" height="40" as="geometry"/>
                </mxCell>
                <mxCell id="37" value="" style="edgeStyle=none;html=1;fontColor=#000000;" parent="1" edge="1">
                    <mxGeometry relative="1" as="geometry">
                        <mxPoint x="492" y="360" as="sourcePoint"/>
                        <mxPoint x="492" y="370" as="targetPoint"/>
                    </mxGeometry>
                </mxCell>
                <mxCell id="13" value="ao_neo4j" style="rounded=1;whiteSpace=wrap;html=1;fontColor=#ffffff;fillColor=#a0522d;strokeColor=#6D1F00;" parent="1" vertex="1">
                    <mxGeometry x="470" y="330" width="90" height="30" as="geometry"/>
                </mxCell>
                <mxCell id="14" value="Neo4j" style="rounded=1;whiteSpace=wrap;html=1;fontColor=#ffffff;fillColor=#a0522d;strokeColor=#6D1F00;" parent="1" vertex="1">
                    <mxGeometry x="120" y="720" width="80" height="40" as="geometry"/>
                </mxCell>
                <mxCell id="29" value="" style="edgeStyle=none;html=1;fontColor=#000000;exitX=0.75;exitY=0;exitDx=0;exitDy=0;entryX=0.231;entryY=1;entryDx=0;entryDy=0;entryPerimeter=0;" parent="1" source="20" target="25" edge="1">
                    <mxGeometry relative="1" as="geometry"/>
                </mxCell>
                <mxCell id="20" value="crystal kill detail sync &lt;br&gt;*" style="rounded=1;whiteSpace=wrap;html=1;fillColor=#f0a30a;strokeColor=#BD7000;fontColor=#000000;" parent="1" vertex="1">
                    <mxGeometry x="470" y="420" width="80" height="40" as="geometry"/>
                </mxCell>
                <mxCell id="27" value="" style="edgeStyle=none;html=1;fontColor=#000000;" parent="1" edge="1">
                    <mxGeometry relative="1" as="geometry">
                        <mxPoint x="537" y="370" as="sourcePoint"/>
                        <mxPoint x="537" y="360" as="targetPoint"/>
                    </mxGeometry>
                </mxCell>
                <mxCell id="28" value="" style="edgeStyle=none;html=1;fontColor=#000000;exitX=0.077;exitY=1;exitDx=0;exitDy=0;entryX=0.25;entryY=0;entryDx=0;entryDy=0;exitPerimeter=0;" parent="1" source="25" target="20" edge="1">
                    <mxGeometry relative="1" as="geometry"/>
                </mxCell>
                <mxCell id="36" value="" style="edgeStyle=none;html=1;fontColor=#000000;" parent="1" source="25" target="31" edge="1">
                    <mxGeometry relative="1" as="geometry"/>
                </mxCell>
                <mxCell id="25" value="ao_graphql_api&lt;br&gt;*" style="rounded=1;whiteSpace=wrap;html=1;fontColor=#FFFFFF;" parent="1" vertex="1">
                    <mxGeometry x="470" y="370" width="260" height="30" as="geometry"/>
                </mxCell>
                <mxCell id="30" value="ReactJS" style="rounded=1;whiteSpace=wrap;html=1;fillColor=#dae8fc;strokeColor=#6c8ebf;fontColor=#000000;" parent="1" vertex="1">
                    <mxGeometry x="120" y="600" width="80" height="40" as="geometry"/>
                </mxCell>
                <mxCell id="40" value="" style="edgeStyle=none;html=1;fontColor=#000000;" parent="1" source="31" target="38" edge="1">
                    <mxGeometry relative="1" as="geometry"/>
                </mxCell>
                <mxCell id="31" value="ao-tools-ui&lt;br&gt;*" style="rounded=1;whiteSpace=wrap;html=1;fillColor=#dae8fc;strokeColor=#6c8ebf;fontColor=#000000;" parent="1" vertex="1">
                    <mxGeometry x="560" y="420" width="80" height="30" as="geometry"/>
                </mxCell>
                <mxCell id="38" value="" style="shape=umlActor;verticalLabelPosition=bottom;verticalAlign=top;html=1;outlineConnect=0;fontColor=#000000;" parent="1" vertex="1">
                    <mxGeometry x="590" y="480" width="20" height="40" as="geometry"/>
                </mxCell>
                <mxCell id="41" value="GraphQL" style="rounded=1;whiteSpace=wrap;html=1;fontColor=#000000;" parent="1" vertex="1">
                    <mxGeometry x="40" y="760" width="80" height="40" as="geometry"/>
                </mxCell>
                <mxCell id="44" value="" style="edgeStyle=none;html=1;entryX=0.75;entryY=1;entryDx=0;entryDy=0;exitX=0.75;exitY=0;exitDx=0;exitDy=0;" parent="1" source="42" target="vMF9VWcr_iRThbdEaZ-J-97" edge="1">
                    <mxGeometry relative="1" as="geometry"/>
                </mxCell>
                <mxCell id="42" value="Redis cache" style="rounded=1;whiteSpace=wrap;html=1;fillColor=#6d8764;fontColor=#ffffff;strokeColor=#3A5431;" parent="1" vertex="1">
                    <mxGeometry x="150" y="400" width="100" height="30" as="geometry"/>
                </mxCell>
                <mxCell id="45" value="Redis cache" style="rounded=1;whiteSpace=wrap;html=1;fillColor=#6d8764;fontColor=#ffffff;strokeColor=#3A5431;" parent="1" vertex="1">
                    <mxGeometry x="120" y="760" width="80" height="40" as="geometry"/>
                </mxCell>
            </root>
        </mxGraphModel>
    </diagram>
</mxfile>